<svg width="48" height="48" viewBox="0 0 48 48" fill="none" xmlns="http://www.w3.org/2000/svg"><g clip-path="url(#clip0_130_1491)"><path d="M23.156 0h-20a4 4 0 00-4 4v40a4 4 0 004 4h20a4 4 0 004-4V4a4 4 0 00-4-4z" fill="#E8F0FE"/><path d="M33.156 0h-20a4 4 0 00-4 4v40a4 4 0 004 4h20a4 4 0 004-4V4a4 4 0 00-4-4z" fill="#D2E3FC"/><path d="M43.156 0h-20a4 4 0 00-4 4v40a4 4 0 004 4h20a4 4 0 004-4V4a4 4 0 00-4-4z" fill="#4285F4"/></g><defs><clipPath id="clip0_130_1491"><path fill="#fff" d="M0 0h48v48H0z"/></clipPath></defs></svg>