<?xml version="1.0" encoding="UTF-8"?>
<svg id="Layer_2" data-name="Layer 2" xmlns="http://www.w3.org/2000/svg" viewBox="0 0 79.73 59.35">
  <defs>
    <style>
      .cls-1 {
        fill: #042726;
        stroke: #042726;
        stroke-miterlimit: 10;
      }
      .cls-2 {
        fill: #48bda6;
      }
    </style>
  </defs>
  <g id="Layer_1-2" data-name="Layer 1">
    <g>
      <path class="cls-1" d="m79.22,37.45c-.09-10.79-.31-21.57-.48-32.36-.02-1.16-.05-2.32-.11-3.47-.03-.71-.24-1.13-1.15-1.12-7.23.1-14.46.12-21.69.19-6.79.07-13.58.16-20.37.29-3.59.07-7.18.24-10.77.39-.31.01-.86.23-.87.38-.02.44.04.99.3,1.33.82,1.08,1.67,2.15,2.63,3.11,3.67,3.67,7.39,7.3,11.09,10.94-.03.03-.06.06-.09.09,3.79,3.73,7.59,7.44,11.34,11.21.44.44.74,1.23.75,1.87.16,7.35.23,14.7.37,22.04.03,1.63.28,3.26.41,4.89.06.75.42,1.17,1.2,1.23,1.39.12,2.79.39,4.17.36,5.87-.12,11.74-.3,17.6-.52,1.18-.05,2.36-.38,3.53-.63,1.51-.32,1.89-.7,1.92-2.28.11-5.99.27-11.98.23-17.97Z"/>
      <path class="cls-2" d="m35.38,17.16l-2.33-2.29c-2.7-2.65-5.39-5.3-8.07-7.97-1.05-1.05-1.96-2.21-2.72-3.21-.49-.65-.52-1.52-.5-1.99.03-.5.37-.82.75-1.02-6.93-.07-13.85-.09-20.78-.19-.92-.01-1.12.41-1.15,1.12-.06,1.16-.09,2.32-.11,3.47C.31,15.88.09,26.67,0,37.45c-.05,5.99.12,11.98.23,17.97.03,1.58.4,1.96,1.92,2.28,1.17.25,2.35.58,3.53.63,5.87.23,11.73.41,17.6.52,1.39.03,2.78-.25,4.17-.36.77-.06,1.13-.49,1.2-1.23.14-1.63.38-3.26.41-4.89.14-7.35.21-14.7.37-22.04.01-.64.31-1.43.75-1.87,2.71-2.74,5.46-5.44,8.21-8.14l-3.11-3.06.09-.09Z"/>
    </g>
  </g>
</svg>